<!DOCTYPE svg PUBLIC "-//W3C//DTD SVG 20010904//EN" "http://www.w3.org/TR/2001/REC-SVG-20010904/DTD/svg10.dtd">
<svg version="1.0" xmlns="http://www.w3.org/2000/svg" width="773px" height="660px" viewBox="0 0 7730 6600" preserveAspectRatio="xMidYMid meet">
<g id="layer101" fill="#e91c63" stroke="none">
 <path d="M1273 4069 c-17 -5 -41 -21 -52 -35 -21 -26 -21 -35 -21 -731 l0 -705 34 -34 34 -34 736 0 c789 0 779 -1 805 49 6 11 11 281 12 719 2 649 1 703 -15 727 -37 56 -25 55 -794 54 -389 -1 -721 -5 -739 -10z m425 -366 c34 -30 282 -486 282 -519 0 -60 -55 -99 -117 -82 -32 8 -42 22 -161 238 -14 25 -51 91 -84 147 -32 57 -61 116 -64 132 -6 30 9 68 35 88 24 18 86 16 109 -4z m747 -8 c45 -44 37 -65 -132 -369 -86 -154 -172 -309 -190 -343 -43 -79 -76 -107 -121 -99 -19 3 -40 10 -48 17 -14 11 -94 150 -94 163 0 3 14 6 30 6 68 0 80 16 235 292 82 145 153 272 159 283 6 11 22 32 35 48 33 36 91 38 126 2z"/>
 <path d="M5480 4069 c-52 -16 -86 -44 -109 -92 -66 -136 47 -290 193 -263 79 15 146 97 146 180 0 116 -120 207 -230 175z m129 -57 c14 -10 34 -39 45 -64 26 -63 16 -111 -34 -160 -34 -34 -43 -38 -88 -38 -43 0 -57 5 -86 30 -60 53 -70 126 -26 198 38 61 130 78 189 34z"/>
 <path d="M3288 4063 c-16 -2 -28 -10 -28 -16 0 -7 59 -351 132 -765 l132 -752 36 6 c59 10 70 15 70 32 0 9 -59 349 -130 755 -72 407 -130 741 -130 743 0 5 -42 3 -82 -3z"/>
 <path d="M3962 3893 l3 -178 68 2 c81 3 104 14 122 57 31 74 -11 137 -97 146 l-52 5 -1 70 c0 65 -2 70 -23 73 l-22 3 2 -178z m146 -25 c6 -6 12 -28 12 -49 0 -45 -27 -69 -76 -69 -32 0 -32 0 -36 56 -4 74 4 88 51 79 20 -4 42 -11 49 -17z"/>
 <path d="M4265 4051 c3 -10 32 -89 64 -176 79 -215 80 -215 159 -2 33 89 64 170 67 180 5 13 2 17 -13 17 -14 0 -24 -13 -37 -47 -10 -27 -20 -51 -24 -55 -9 -10 -124 -14 -138 -5 -6 4 -19 30 -28 57 -13 38 -22 50 -36 50 -15 0 -19 -5 -14 -19z m195 -138 c0 -15 -44 -143 -50 -143 -3 0 -17 34 -32 75 l-27 75 54 0 c30 0 55 -3 55 -7z"/>
 <path d="M4780 3987 c0 -82 0 -83 -54 -172 -29 -50 -52 -93 -50 -97 10 -16 47 9 65 44 11 21 28 53 38 70 l19 30 41 -70 c39 -67 64 -91 76 -72 3 5 -17 48 -45 96 -49 85 -50 88 -50 170 0 77 -2 84 -20 84 -18 0 -20 -7 -20 -83z"/>
 <path d="M5072 3893 c3 -160 5 -178 21 -181 16 -3 17 10 17 157 l0 161 65 0 c58 0 65 2 65 20 0 18 -7 20 -85 20 l-85 0 2 -177z"/>
 <path d="M5895 3901 c72 -192 71 -191 90 -191 19 0 18 -1 89 190 61 162 63 170 42 170 -18 0 -26 -11 -41 -55 -10 -30 -23 -55 -29 -56 -6 -1 -38 -1 -71 -1 l-60 0 -21 53 c-15 37 -28 55 -42 57 -18 3 -14 -14 43 -167z m145 15 c0 -5 -51 -140 -55 -144 -2 -3 -55 134 -55 144 0 2 25 4 55 4 30 0 55 -2 55 -4z"/>
 <path d="M6280 3891 l0 -183 67 7 c37 3 81 12 98 19 121 51 128 252 12 313 -18 9 -65 18 -104 21 l-73 5 0 -182z m171 113 c47 -42 62 -120 33 -179 -21 -44 -50 -62 -113 -71 l-51 -7 0 143 0 142 55 -4 c35 -3 63 -12 76 -24z"/>
 <path d="M3975 3373 c5 -21 174 -515 278 -810 l11 -33 131 0 130 0 73 213 c40 116 107 309 148 427 41 118 74 219 74 223 0 4 -55 6 -122 5 l-123 -3 -25 -82 -24 -83 -131 0 -131 0 -28 85 -27 85 -121 0 -120 0 7 -27z m480 -343 c5 -8 -50 -227 -60 -238 -3 -3 -65 213 -65 227 0 5 21 12 48 14 26 2 52 4 59 5 6 1 15 -2 18 -8z"/>
 <path d="M4900 2965 l0 -435 128 0 127 0 80 143 c44 78 106 187 137 242 l58 100 0 -243 0 -242 125 0 125 0 0 435 0 435 -122 0 -123 0 -41 -68 c-23 -37 -88 -146 -145 -242 l-104 -175 -3 243 -2 242 -120 0 -120 0 0 -435z"/>
 <path d="M6030 3208 l0 -191 -124 -221 c-68 -122 -129 -231 -135 -243 l-12 -23 138 0 138 0 54 125 c29 69 57 125 60 125 4 0 32 -55 61 -121 30 -67 60 -123 66 -126 5 -2 67 -2 136 -1 l127 3 -135 239 -134 239 0 194 0 193 -120 0 -120 0 0 -192z"/>
 </g>

</svg>